<?xml version="1.0" standalone="no"?>
<!DOCTYPE svg PUBLIC "-//W3C//DTD SVG 20010904//EN"
 "http://www.w3.org/TR/2001/REC-SVG-20010904/DTD/svg10.dtd">
<svg version="1.0" xmlns="http://www.w3.org/2000/svg"
 width="794.000000pt" height="1159.000000pt" viewBox="0 0 794.000000 1159.000000"
 preserveAspectRatio="xMidYMid meet">

<g transform="translate(0.000000,1159.000000) scale(0.100000,-0.100000)"
fill="#000000" stroke="none">
<path d="M3955 11549 c-10 -23 -33 -52 -51 -65 -28 -22 -41 -24 -138 -24 -59
0 -126 5 -149 10 -59 14 -261 27 -292 19 -14 -4 -50 -30 -81 -58 l-56 -51
-206 0 c-114 0 -214 -5 -222 -10 -12 -8 -10 -14 14 -39 33 -34 30 -56 -11 -64
-15 -3 -57 -13 -93 -22 -36 -9 -81 -20 -100 -24 -60 -13 -110 -35 -107 -46 2
-5 20 -13 41 -16 66 -11 73 -39 13 -57 -248 -75 -246 -74 -249 -110 -3 -33 -5
-34 -98 -66 -52 -17 -119 -45 -149 -61 -65 -36 -161 -124 -161 -148 0 -15 7
-16 55 -11 36 5 55 3 55 -4 0 -6 -46 -52 -102 -104 -138 -124 -188 -176 -188
-191 0 -7 10 -17 23 -22 26 -12 33 -42 15 -76 -23 -43 -156 -233 -199 -284
-24 -27 -80 -88 -126 -133 -102 -103 -108 -126 -26 -103 30 9 53 0 53 -21 0
-4 -35 -34 -77 -67 -129 -99 -243 -217 -243 -249 0 -19 39 -14 90 12 65 33
104 40 118 23 10 -11 4 -26 -26 -70 -90 -133 -241 -284 -373 -372 l-72 -48 27
-24 c25 -21 37 -23 132 -23 61 0 104 -4 104 -10 0 -5 -67 -76 -148 -157 -141
-141 -312 -340 -312 -364 0 -15 50 -3 103 25 23 13 86 48 140 79 94 55 127 67
127 48 0 -5 -45 -57 -101 -115 -55 -58 -110 -118 -122 -133 -12 -15 -24 -30
-28 -33 -3 -3 -31 -39 -61 -81 -120 -163 -259 -411 -328 -584 -17 -44 -35 -89
-39 -100 -36 -88 -51 -165 -32 -165 9 0 54 51 166 190 38 47 75 92 84 101 9 9
52 57 96 107 44 50 83 91 88 91 15 2 6 -28 -29 -85 -20 -32 -47 -79 -61 -104
-40 -69 -215 -418 -242 -480 -53 -123 -71 -167 -96 -230 -10 -25 -24 -58 -31
-75 -18 -42 -105 -303 -115 -345 -4 -19 -15 -60 -24 -90 -20 -66 -43 -159 -55
-220 -4 -25 -11 -52 -15 -61 -4 -10 0 -19 9 -22 11 -4 37 24 91 98 41 58 75
107 75 110 0 2 37 59 82 127 84 126 173 242 225 291 26 24 31 26 42 13 11 -13
8 -24 -14 -63 -130 -229 -253 -469 -337 -663 -72 -164 -165 -457 -189 -598 -6
-32 -17 -97 -26 -147 -12 -67 -16 -154 -16 -335 0 -255 5 -306 52 -495 39
-159 96 -308 115 -302 7 2 13 76 17 213 8 259 34 458 69 523 21 41 32 13 60
-164 10 -64 34 -181 55 -270 9 -38 20 -86 25 -105 5 -19 15 -65 24 -102 9 -38
23 -98 32 -135 9 -38 19 -84 24 -103 4 -19 17 -78 30 -130 42 -182 50 -226 56
-305 11 -149 -30 -446 -91 -660 -9 -33 -21 -73 -25 -90 -4 -16 -15 -50 -24
-75 -10 -25 -21 -58 -26 -75 -4 -16 -20 -59 -33 -95 -14 -36 -34 -87 -45 -115
-23 -62 -48 -119 -111 -258 -54 -117 -33 -131 51 -34 53 61 138 172 138 181 0
2 16 27 35 56 31 46 157 295 190 375 7 17 17 41 24 55 17 37 79 214 106 300
13 41 28 89 33 105 6 17 18 57 27 90 9 33 20 71 25 85 4 14 16 54 25 90 26 99
26 98 35 75 27 -64 -5 -720 -45 -940 -9 -49 -21 -111 -25 -138 -5 -26 -14 -62
-19 -80 -6 -17 -24 -75 -40 -127 -38 -121 -57 -172 -81 -223 -11 -23 -20 -44
-20 -49 0 -4 -11 -31 -24 -58 -32 -67 -61 -159 -52 -168 4 -4 21 9 38 28 32
36 154 174 172 194 6 6 51 56 101 111 49 55 110 122 135 149 25 27 50 54 55
60 278 311 326 359 342 343 10 -9 16 -72 23 -218 6 -112 15 -251 20 -309 6
-58 10 -159 10 -226 0 -118 6 -144 36 -144 6 0 42 64 80 142 202 414 260 523
280 523 16 0 20 -10 26 -60 45 -409 49 -790 9 -1081 -16 -113 -68 -235 -132
-307 -39 -45 -47 -76 -23 -84 12 -4 173 133 242 206 126 134 231 284 299 428
54 115 51 109 64 96 10 -10 -19 -165 -42 -221 -5 -13 -9 -33 -9 -46 0 -13 -6
-46 -14 -72 -8 -27 -26 -103 -41 -169 -15 -66 -33 -142 -40 -170 -7 -27 -25
-102 -40 -165 -14 -63 -31 -134 -37 -158 -11 -43 -7 -59 11 -48 5 4 61 77 123
164 102 140 151 211 252 362 17 25 34 50 38 55 5 6 44 60 88 122 44 62 85 115
92 119 21 13 48 -35 48 -86 0 -26 5 -72 11 -101 6 -30 12 -155 13 -279 2 -210
10 -265 28 -193 4 15 16 60 26 98 41 148 67 299 83 494 6 69 14 159 17 200 7
74 24 103 35 59 13 -52 28 -308 23 -383 -16 -200 -38 -348 -76 -504 -20 -83
11 -68 92 45 33 47 64 79 74 79 23 0 36 -47 30 -105 -5 -53 5 -112 21 -117 12
-4 32 56 61 187 15 71 22 85 38 85 16 0 19 -8 21 -55 1 -30 2 -63 2 -72 2 -39
31 -15 61 50 17 37 37 77 43 90 6 12 16 22 22 22 9 0 13 -68 17 -250 4 -176
10 -255 18 -265 16 -19 30 -19 30 0 0 8 6 29 14 47 8 18 45 114 81 213 37 99
73 194 80 210 7 17 21 52 30 80 15 47 29 65 49 65 5 0 5 -125 0 -307 -5 -170
-7 -359 -6 -421 2 -68 -1 -126 -8 -148 -8 -22 -9 -39 -3 -45 18 -18 43 3 54
45 5 22 14 55 19 71 9 30 23 77 55 190 9 33 20 71 25 85 4 14 16 52 25 85 9
33 20 71 25 85 4 14 15 54 25 90 22 82 46 141 55 135 4 -3 11 -88 15 -189 5
-142 10 -186 21 -190 17 -7 17 -6 53 105 58 179 150 470 176 554 8 28 33 106
54 175 22 69 53 168 69 220 19 60 34 95 43 95 16 0 16 -46 8 -732 -3 -282 -1
-385 8 -394 16 -16 43 39 43 91 0 49 14 80 37 80 13 0 15 -8 9 -48 -12 -95
-20 -659 -8 -666 11 -6 35 23 69 84 56 100 86 156 148 275 86 165 148 283 176
332 12 21 40 74 61 118 22 44 54 109 71 144 40 81 84 131 98 110 5 -8 9 -185
9 -396 0 -239 4 -383 10 -383 13 0 27 29 55 113 13 40 29 86 35 102 24 59 28
70 33 90 3 11 20 58 37 105 17 47 40 112 51 145 11 33 24 69 29 80 5 11 25 65
44 120 63 186 79 230 92 265 7 19 24 69 39 110 14 41 33 90 41 108 8 18 14 39
14 47 0 9 4 23 10 33 10 18 47 121 83 234 16 48 27 68 39 68 18 0 18 1 40
-479 9 -179 17 -276 24 -278 6 -2 18 26 28 64 9 37 24 90 32 117 8 26 14 55
14 64 0 9 4 29 10 46 5 17 28 108 50 201 22 94 47 195 55 225 8 30 33 130 55
223 22 92 58 242 81 335 22 92 51 214 65 272 14 58 31 128 39 156 8 28 15 60
15 71 0 24 27 50 39 37 7 -9 25 -90 42 -194 5 -30 16 -89 24 -130 8 -41 20
-102 26 -135 9 -52 21 -74 39 -75 12 0 58 145 79 250 21 108 24 159 30 463 4
193 10 307 16 308 10 1 14 -12 34 -106 18 -88 41 -188 57 -250 29 -113 34
-130 49 -195 9 -36 20 -78 25 -95 5 -16 18 -70 30 -120 11 -49 24 -108 30
-130 5 -22 12 -53 15 -68 3 -16 11 -27 18 -24 25 8 16 494 -13 687 -18 119
-40 251 -51 305 -16 76 -64 270 -80 320 -22 71 -71 222 -79 240 -5 11 -36 88
-70 170 -34 83 -78 180 -97 216 -38 74 -80 120 -91 102 -4 -6 -4 -64 0 -130
10 -177 9 -436 -1 -452 -11 -17 -8 -25 -36 129 -10 52 -21 111 -26 130 -4 19
-16 69 -25 110 -10 41 -26 107 -37 145 -10 39 -23 86 -27 105 -18 75 -84 250
-136 359 -50 105 -154 276 -178 293 -35 25 -34 -1 7 -126 19 -55 42 -130 52
-166 9 -36 21 -76 25 -90 58 -177 122 -482 160 -755 17 -125 24 -456 11 -575
-29 -277 -48 -402 -101 -665 -25 -126 -82 -348 -116 -454 -3 -10 -8 -11 -15
-4 -7 7 -6 47 5 129 47 363 60 653 52 1114 -9 534 -50 827 -155 1095 -39 100
-47 113 -61 99 -7 -7 -3 -46 16 -130 35 -158 43 -233 50 -464 9 -260 -13 -502
-77 -845 -6 -33 -15 -82 -19 -110 -19 -118 -43 -115 -70 10 -18 85 -41 146
-54 142 -16 -5 -28 -124 -57 -547 -14 -201 -7 -407 15 -428 8 -8 19 -11 25 -8
5 4 33 53 62 109 28 56 60 117 71 135 18 30 22 32 36 19 13 -14 13 -30 3 -124
-12 -103 -17 -132 -41 -233 -6 -25 -15 -61 -20 -80 -4 -19 -15 -60 -24 -90 -9
-30 -21 -68 -25 -85 -11 -38 -77 -229 -96 -275 -7 -19 -26 -69 -41 -110 -14
-41 -32 -88 -39 -105 -7 -16 -18 -46 -25 -65 -38 -103 -84 -129 -74 -42 3 26
11 79 19 117 33 177 68 442 60 456 -8 12 -37 -25 -55 -71 -45 -120 -71 -170
-94 -185 -23 -14 -36 8 -36 61 0 37 -13 64 -31 64 -4 0 -15 -26 -24 -58 -72
-240 -129 -402 -190 -537 -8 -16 -24 -52 -36 -80 -39 -90 -169 -343 -218 -427
-9 -14 -33 -56 -54 -92 -21 -36 -43 -66 -49 -66 -12 0 -5 104 11 168 24 92 62
385 53 410 -6 20 -30 13 -67 -19 -21 -19 -40 -28 -45 -23 -5 5 -3 34 4 69 21
98 52 291 76 475 23 181 35 416 35 670 0 257 -1 265 -20 265 -16 0 -22 -13
-37 -80 -37 -164 -114 -395 -137 -409 -23 -15 -34 28 -33 132 0 59 -2 185 -5
280 -5 160 -6 172 -24 172 -11 0 -20 -9 -23 -23 -3 -12 -15 -71 -27 -132 -11
-60 -28 -141 -36 -180 -8 -38 -18 -92 -23 -120 -10 -60 -34 -190 -55 -300 -9
-44 -20 -102 -25 -130 -32 -180 -107 -547 -119 -590 -5 -16 -12 -51 -16 -77
-3 -27 -9 -48 -13 -48 -28 1 -30 26 -36 360 -8 390 -16 499 -56 730 -12 70
-39 163 -51 174 -7 8 -14 6 -23 -6 -18 -24 -30 -23 -43 5 -10 21 -76 225 -109
337 -9 30 -23 75 -30 99 -10 32 -11 48 -3 55 10 11 25 -3 49 -44 6 -11 12 -12
19 -4 8 7 5 33 -10 89 -12 46 -16 82 -11 87 12 12 23 -4 56 -84 23 -56 32 -68
51 -68 l22 0 2 218 c2 252 26 426 76 546 15 36 17 37 35 21 21 -19 50 -132 50
-194 0 -40 25 -80 41 -64 9 9 29 113 36 186 3 28 10 47 17 47 13 0 28 -228 32
-500 2 -158 2 -150 18 -150 17 0 31 34 52 130 9 41 24 106 33 144 31 128 61
87 61 -82 0 -59 4 -113 8 -120 12 -18 40 -5 47 21 6 21 77 217 97 267 35 90
58 102 76 42 7 -22 12 -55 12 -75 0 -45 8 -67 25 -67 17 0 25 13 36 56 5 19
13 49 19 67 100 339 113 414 114 632 0 220 -5 245 -98 437 -47 98 -117 198
-138 198 -11 0 -9 -36 8 -237 8 -83 -1 -92 -44 -43 -44 50 -52 41 -52 -64 0
-52 -3 -102 -6 -111 -6 -14 -8 -14 -25 1 -11 9 -19 26 -19 36 0 37 -39 108
-60 108 -18 0 -20 -7 -20 -84 0 -65 -4 -87 -16 -97 -14 -11 -18 -10 -30 6 -8
10 -14 25 -14 32 0 7 -4 21 -10 31 -5 9 -23 62 -41 117 -17 55 -35 108 -40
117 -5 10 -9 24 -9 32 0 20 -31 49 -41 39 -5 -5 -11 -35 -14 -68 -11 -105 -27
-195 -35 -200 -22 -13 -43 52 -62 192 -20 139 -42 223 -55 209 -4 -3 -10 -43
-14 -88 -20 -214 -33 -293 -66 -403 -20 -66 -61 -155 -71 -155 -29 0 -32 29
-32 308 0 261 -1 283 -17 280 -16 -3 -39 -63 -63 -168 -42 -176 -65 -245 -83
-248 -15 -3 -17 7 -17 75 0 117 -35 153 -58 61 -6 -24 -17 -71 -26 -105 -9
-35 -16 -70 -16 -80 0 -33 -33 -103 -48 -103 -13 0 -14 31 -8 248 7 259 1 308
-28 239 -8 -21 -20 -63 -26 -95 -12 -56 -35 -171 -46 -224 -7 -31 -28 -53 -44
-43 -6 4 -10 49 -10 110 0 116 -9 134 -46 92 -28 -33 -52 -35 -59 -4 -3 12 -9
76 -13 142 l-7 120 -43 24 c-41 22 -44 26 -37 55 3 17 8 63 11 101 3 39 10 84
15 101 6 18 14 54 18 80 5 27 18 83 29 124 11 41 23 94 27 118 6 40 27 63 42
48 3 -3 5 -38 5 -78 -2 -90 8 -111 34 -73 38 54 76 95 89 95 17 0 35 -53 35
-102 0 -46 15 -78 35 -78 14 0 17 8 28 70 3 14 13 50 22 80 9 30 19 68 22 83
7 37 27 29 31 -14 2 -19 7 -38 12 -43 15 -15 39 12 42 47 2 18 8 32 13 32 6 0
13 -95 18 -249 7 -233 10 -266 21 -255 8 7 30 116 57 269 21 122 24 135 39
135 10 0 16 -12 18 -32 5 -49 38 -45 46 5 4 20 11 51 16 67 5 17 12 42 14 56
3 14 21 43 41 63 46 49 48 92 6 134 -47 46 -158 66 -240 42 -30 -8 -41 -6 -80
16 -58 33 -125 54 -173 54 -55 0 -199 31 -225 48 -28 18 -30 58 -4 72 11 5 58
10 104 10 89 0 102 6 86 45 -14 36 -9 54 19 69 50 26 97 29 187 11 81 -16 90
-16 121 -1 46 21 86 20 134 -4 49 -25 61 -25 93 0 30 24 20 23 262 15 372 -11
474 -44 359 -116 -33 -20 -42 -33 -26 -42 4 -3 54 -1 112 2 116 8 145 3 153
-28 6 -25 52 -28 81 -6 65 50 76 147 25 227 -34 53 -56 60 -95 29 -27 -21 -34
-21 -184 4 -47 8 -130 22 -185 30 -281 43 -332 53 -376 75 -25 13 -48 17 -77
13 l-42 -6 0 67 c0 58 -2 67 -17 64 -10 -2 -24 -21 -33 -44 -37 -99 -87 -129
-280 -168 -41 -8 -113 -23 -160 -32 -61 -13 -134 -18 -258 -18 l-174 -1 -36
43 c-20 23 -44 42 -52 42 -36 0 -80 -87 -80 -156 0 -55 -14 -63 -50 -29 -41
39 -57 111 -40 182 11 44 25 67 77 123 34 37 98 94 140 126 137 103 213 166
213 175 0 35 -189 -46 -341 -146 -92 -61 -214 -181 -259 -257 -44 -73 -65 -78
-40 -9 19 52 61 143 71 151 3 3 22 32 41 65 20 33 45 69 55 80 10 11 39 47 65
80 26 33 62 78 82 100 31 35 33 40 16 43 -11 2 -25 -1 -32 -7 -248 -206 -295
-239 -313 -220 -7 8 -6 13 3 16 6 3 12 9 12 15 0 19 81 132 134 186 59 61 118
106 196 149 65 37 74 53 28 53 -69 0 -222 -79 -333 -172 -64 -53 -197 -196
-235 -252 -88 -131 -125 -158 -114 -83 23 163 88 339 187 508 85 145 -136 7
-267 -166 -25 -33 -49 -64 -53 -70 -29 -36 -102 -162 -168 -293 -50 -98 -82
-149 -88 -143 -26 26 144 410 254 575 21 32 39 60 39 62 0 3 23 35 50 73 28
38 50 73 50 79 0 6 -38 36 -85 67 -46 31 -115 88 -153 126 -82 81 -103 86
-196 39 -79 -39 -112 -46 -120 -25 -4 12 18 41 74 97 44 45 80 89 80 99 0 9
-7 30 -15 45 -8 16 -20 55 -26 86 -15 73 -35 93 -75 76 -16 -7 -48 -26 -71
-42 -80 -54 -77 -10 5 76 76 80 86 102 85 193 0 130 -19 146 -155 126 -44 -6
-85 -8 -90 -4 -14 8 32 42 58 43 31 0 115 30 147 52 28 20 61 83 51 99 -3 5
-26 9 -51 9 -42 0 -45 1 -38 23 4 12 8 33 9 47 1 25 -1 25 -88 30 -144 8 -129
24 74 76 80 20 100 34 225 153 101 97 188 151 290 180 106 31 185 50 235 55
30 4 62 11 70 16 22 14 0 43 -42 55 -40 12 -86 40 -77 49 3 3 21 1 40 -4 162
-42 337 -71 345 -58 8 13 -21 43 -59 63 -42 21 -71 38 -77 47 -13 17 -165 88
-282 132 -141 53 -186 84 -108 73 25 -4 74 -9 109 -13 61 -7 63 -6 52 13 -10
21 -48 41 -151 83 -85 34 -119 53 -114 62 3 4 14 8 24 8 35 0 206 -44 257 -66
17 -8 38 -14 46 -14 9 0 18 -4 21 -9 3 -4 27 -16 53 -26 26 -10 95 -40 152
-67 57 -26 105 -48 107 -48 2 0 4 7 4 15 0 17 -76 80 -175 143 -125 81 -170
122 -132 122 18 0 181 -80 185 -91 2 -5 8 -9 14 -9 5 0 96 -53 201 -118 233
-144 287 -173 298 -166 20 12 -53 117 -141 203 -169 165 -501 413 -705 526
-111 61 -155 90 -155 104 0 10 9 12 34 8 22 -4 39 -1 46 7 12 16 -3 27 -102
75 -73 35 -93 65 -35 51 78 -18 256 -97 382 -168 57 -33 164 -101 175 -112 13
-13 91 -60 100 -60 35 0 -10 57 -180 228 -171 173 -211 222 -180 222 16 0 146
-71 360 -198 84 -49 161 -93 210 -119 14 -7 35 -13 46 -13 42 0 92 -30 145
-87 114 -121 137 -143 153 -143 20 0 21 26 1 64 -8 15 -15 32 -15 37 0 4 -18
47 -40 94 -22 47 -40 88 -40 90 0 2 -15 36 -34 77 -18 40 -43 98 -56 128 -12
30 -26 63 -31 72 -5 10 -9 29 -9 44 0 23 3 25 30 19 17 -4 30 -3 30 1 0 12
-55 97 -100 155 -101 130 -160 211 -160 220 0 26 40 -8 229 -194 433 -428 471
-462 471 -428 0 11 -45 143 -60 176 -38 85 -50 135 -31 135 13 0 32 -26 66
-93 17 -34 40 -64 49 -65 15 -3 17 2 10 45 -6 46 -25 125 -58 243 -9 30 -18
66 -22 80 -3 14 -9 34 -14 45 -5 11 -18 54 -30 95 -12 41 -27 90 -33 107 -14
41 0 56 22 24 33 -49 133 -240 170 -326 12 -27 26 -59 31 -70 25 -59 80 -222
145 -432 3 -7 11 -13 20 -13 17 0 14 72 -10 270 -8 63 -16 135 -17 160 -3 44
-4 45 -37 45 -32 0 -34 2 -53 60 -10 33 -26 85 -35 115 -18 65 -39 136 -59
205 -8 28 -19 66 -24 85 -5 19 -20 76 -33 125 -13 50 -27 105 -30 123 -12 59
27 20 63 -65 62 -143 88 -160 81 -55 -5 102 34 69 65 -54 18 -68 37 -104 57
-104 6 0 7 63 2 175 -6 166 -6 175 12 175 18 0 25 -11 62 -107 11 -29 25 -60
30 -70 5 -10 17 -38 26 -63 45 -117 55 -125 113 -90 39 24 47 44 56 130 9 83
14 100 30 100 14 0 26 -42 26 -86 0 -13 7 -42 16 -64 18 -44 39 -50 58 -15 6
10 20 35 32 55 12 19 41 73 66 120 124 237 146 225 92 -49 -27 -140 -30 -191
-11 -191 6 0 27 9 46 21 41 25 51 15 51 -48 0 -24 4 -43 8 -43 12 0 42 34 42
47 0 6 4 13 9 15 5 2 20 26 35 55 30 61 82 123 102 123 20 0 18 -15 -12 -93
-41 -107 -10 -105 64 4 53 77 91 119 109 119 7 0 13 -2 13 -5 0 -3 -24 -54
-54 -113 -87 -175 -85 -217 9 -122 45 46 52 49 94 48 25 -1 58 1 74 6 35 11
36 -8 2 -54 -14 -19 -22 -37 -18 -41 8 -8 73 12 148 45 119 52 242 81 233 55
-4 -11 -161 -109 -175 -109 -8 0 -169 -104 -175 -113 -3 -6 1 -21 9 -34 9 -13
13 -36 11 -54 -6 -40 10 -46 67 -24 44 16 65 14 65 -7 0 -6 -22 -41 -50 -78
-80 -108 -69 -115 52 -34 129 88 237 154 249 154 7 0 17 -7 24 -16 10 -15 15
-14 58 5 95 43 91 18 -12 -79 -91 -86 -104 -113 -53 -118 18 -2 54 3 80 11 26
9 73 18 105 21 50 5 57 4 57 -12 0 -18 -55 -69 -137 -127 -59 -43 -193 -164
-193 -176 0 -19 45 -7 116 31 41 22 82 40 92 40 10 0 23 5 29 11 16 16 153 15
226 0 64 -14 71 -32 16 -42 -96 -18 -137 -29 -167 -44 -58 -30 -35 -40 88 -40
77 0 114 -4 117 -12 6 -16 -42 -57 -85 -72 -52 -19 -103 -51 -96 -62 8 -13 58
-11 101 5 40 14 127 36 143 36 6 0 10 -4 10 -9 0 -19 -53 -59 -135 -101 -102
-52 -145 -88 -145 -123 0 -13 -9 -36 -20 -50 l-21 -26 21 -11 c11 -6 20 -18
20 -28 0 -9 -44 -59 -97 -109 l-97 -93 37 0 c20 0 45 4 55 9 48 24 95 40 162
55 41 9 94 21 118 26 63 15 257 12 336 -4 106 -23 104 -31 -16 -57 -46 -10
-110 -25 -143 -34 -33 -9 -73 -19 -90 -23 -23 -6 -31 -14 -33 -35 -2 -18 -11
-31 -25 -36 -43 -16 -102 -34 -137 -42 -131 -29 -198 -55 -181 -72 6 -6 35
-14 64 -17 65 -6 69 -26 10 -54 -23 -12 -42 -28 -43 -37 0 -14 8 -14 83 -1
114 19 287 27 287 13 0 -17 -146 -71 -192 -71 -20 0 -52 -36 -39 -44 5 -4 20
-2 33 3 13 5 75 14 139 20 323 30 429 1 589 -165 93 -96 150 -175 150 -206 0
-24 -4 -23 -53 10 -95 65 -188 114 -274 144 -51 18 -91 38 -90 43 1 6 37 10
84 10 45 0 85 4 90 9 19 20 -67 57 -191 83 -69 14 -93 14 -175 4 -118 -15
-246 -49 -278 -73 -14 -11 18 -40 111 -103 33 -22 95 -72 137 -111 l78 -72 78
-6 c43 -4 92 -12 108 -18 39 -15 195 -149 282 -242 78 -84 96 -117 193 -356
39 -96 78 -191 86 -210 9 -19 19 -44 24 -55 81 -192 205 -412 364 -649 37 -54
65 -100 62 -103 -9 -10 -45 18 -103 81 -145 155 -305 397 -420 637 -55 113
-103 220 -103 229 0 5 -6 21 -14 37 -8 15 -21 46 -29 68 -71 192 -107 255
-193 335 -61 56 -135 100 -213 127 -64 22 -69 10 -37 -94 37 -120 63 -168 116
-211 169 -136 270 -320 401 -727 11 -33 24 -68 30 -78 11 -20 80 -230 123
-372 14 -49 31 -104 36 -122 13 -37 31 -107 71 -268 16 -66 35 -138 42 -160 7
-22 11 -76 9 -120 -1 -48 3 -96 12 -120 7 -22 21 -67 31 -100 10 -33 28 -91
40 -130 20 -64 52 -167 87 -285 8 -27 19 -45 28 -45 12 0 15 19 14 110 0 124
-18 278 -80 685 -25 166 -29 213 -14 208 11 -3 30 -54 116 -308 72 -214 84
-293 84 -565 1 -384 37 -650 115 -855 23 -61 30 -100 17 -100 -6 0 -35 37 -66
83 -56 84 -109 191 -166 332 -29 72 -42 105 -70 170 -4 11 -11 28 -14 38 -3
10 -11 15 -17 11 -12 -7 -9 -77 11 -269 13 -130 1 -261 -36 -378 -29 -88 -37
-66 -54 148 -11 129 -37 374 -60 570 -6 44 -14 96 -20 115 -5 19 -10 49 -10
67 0 17 -6 58 -14 90 -7 32 -19 85 -26 118 -23 116 -48 220 -81 330 -17 57
-71 220 -79 240 -4 11 -25 61 -45 110 -95 231 -153 328 -401 680 -76 108 -124
185 -124 200 0 14 31 1 90 -40 87 -59 106 -69 125 -61 13 5 14 10 4 28 -22 43
-132 190 -181 243 -52 57 -76 62 -97 22 -50 -99 -136 -225 -210 -310 -28 -32
-51 -60 -51 -63 0 -13 223 -318 268 -366 55 -60 56 -20 2 114 -41 102 -48 138
-29 138 19 0 117 -106 163 -178 38 -59 126 -230 126 -246 0 -6 57 -134 70
-158 12 -22 13 -68 1 -68 -4 0 -29 16 -54 35 -25 19 -51 35 -56 35 -13 0 -15
-42 -3 -55 5 -6 17 -32 27 -60 10 -27 56 -128 103 -222 68 -139 88 -171 98
-162 8 6 14 18 14 26 0 29 32 7 47 -32 24 -64 53 -208 74 -360 5 -38 11 -76
14 -85 3 -9 9 -47 15 -85 5 -39 17 -117 25 -175 21 -138 34 -293 34 -405 1
-84 -9 -129 -22 -108 -8 13 -57 154 -64 183 -3 14 -9 30 -13 35 -4 6 -15 35
-24 65 -21 65 -35 98 -89 209 -39 80 -139 232 -158 239 -16 6 -9 28 16 50 l25
22 -27 43 c-31 46 -204 306 -215 322 -5 6 -11 6 -19 -2 -10 -10 -8 -27 6 -78
9 -36 15 -69 11 -72 -12 -12 -50 33 -123 145 -89 137 -115 149 -77 35 17 -50
20 -59 73 -183 18 -41 36 -84 41 -95 9 -24 43 -99 75 -170 13 -27 44 -97 70
-155 26 -58 55 -123 66 -145 15 -33 133 -302 186 -425 8 -19 23 -53 33 -75 10
-22 28 -67 40 -100 12 -33 27 -76 35 -95 13 -35 53 -164 82 -270 9 -30 19 -66
24 -80 4 -14 15 -52 24 -85 25 -86 105 -301 121 -322 20 -28 44 -6 63 57 12
41 22 56 37 58 21 3 42 -42 129 -278 46 -123 89 -219 101 -224 33 -13 37 35
20 285 -9 134 -19 264 -21 289 -10 92 -36 277 -45 323 -17 86 -12 198 10 234
11 18 24 33 29 33 9 0 81 -113 81 -126 0 -5 63 -132 179 -360 39 -77 58 -104
72 -104 12 0 11 236 -1 297 -11 56 -32 194 -32 208 1 24 25 11 93 -49 78 -69
129 -97 129 -70 0 18 -48 217 -59 247 -5 12 -17 49 -26 82 -9 33 -28 94 -41
135 -64 204 -75 243 -69 248 12 12 36 -29 136 -223 111 -218 144 -275 159
-275 16 0 16 0 -31 190 -37 153 -48 192 -99 355 -66 214 -80 275 -63 275 12 0
91 -83 133 -140 41 -55 111 -130 122 -130 13 0 9 46 -7 76 -8 16 -15 39 -15
51 0 12 -4 32 -9 45 -4 13 -15 48 -24 78 -19 68 -126 407 -138 435 -4 11 -22
65 -40 120 -17 55 -35 109 -40 120 -11 27 -59 173 -69 210 -5 17 -16 55 -25
85 -33 115 -45 163 -41 168 10 9 75 -46 206 -173 126 -123 193 -175 208 -160
4 3 2 9 -4 13 -6 4 -22 30 -35 57 -14 28 -67 131 -119 230 -51 99 -123 239
-160 310 -37 72 -98 189 -135 260 -37 72 -98 189 -135 260 -120 233 -212 409
-236 453 -28 50 -31 82 -8 82 20 0 157 -90 269 -176 116 -89 247 -174 268
-174 26 0 10 26 -77 124 -39 45 -85 97 -101 117 -17 20 -89 105 -161 190 -176
207 -354 431 -354 446 0 22 19 23 72 3 50 -19 108 -27 108 -15 0 14 -45 91
-105 179 -36 53 -65 99 -65 102 0 3 -9 19 -21 35 -47 66 9 64 165 -5 58 -26
86 -32 86 -19 0 18 -60 79 -152 153 -214 173 -237 194 -235 215 2 18 11 20 96
25 52 3 96 10 98 15 3 10 -79 65 -96 65 -14 0 -134 61 -153 78 -10 8 -18 19
-18 24 0 13 62 10 116 -6 134 -39 249 -52 249 -28 0 7 -37 41 -81 75 -237 180
-479 400 -486 442 -3 17 1 19 27 15 61 -10 121 -4 160 15 61 30 56 46 -26 91
-40 21 -77 44 -83 49 -6 6 -30 25 -52 43 -65 50 -133 169 -106 186 5 3 32 -4
59 -16 65 -27 88 -20 79 24 -7 38 -49 84 -126 140 -56 41 -80 65 -80 80 0 4
43 8 95 8 69 0 95 3 95 13 0 6 -45 44 -100 82 -319 224 -396 293 -363 326 6 6
20 6 37 -1 40 -15 96 -13 96 4 0 8 -28 38 -62 67 -35 30 -101 87 -148 128
-120 105 -138 120 -202 175 -34 28 -58 57 -58 68 0 38 -28 74 -72 93 -130 54
-127 52 -130 92 l-3 37 -80 23 c-93 27 -234 69 -286 85 -60 17 -64 23 -64 82
0 30 -4 58 -8 62 -10 11 -86 6 -177 -11 -230 -42 -225 -43 -197 31 27 74 18
77 -125 39 -52 -13 -119 -25 -149 -27 l-54 -3 -3 37 c-5 54 -22 63 -79 44 -25
-9 -64 -16 -84 -16 -53 0 -201 41 -223 61 -6 5 -21 9 -35 9 -20 0 -30 -9 -46
-41z m-962 -750 c22 -10 33 -10 48 -1 29 18 35 15 58 -29 12 -22 38 -64 59
-92 42 -60 82 -129 82 -146 0 -6 -19 2 -42 19 -43 32 -67 36 -98 20 -16 -9
-28 1 -83 72 -85 111 -120 165 -113 177 7 10 41 3 89 -20z m-470 -579 c69 -36
107 -69 107 -93 0 -34 57 -106 85 -107 11 0 105 -91 105 -102 0 -19 -27 -4
-94 50 -39 31 -77 62 -84 67 -7 6 -18 15 -26 21 -17 15 -228 166 -251 180 -12
6 -16 16 -12 26 5 15 11 15 67 -2 33 -10 80 -28 103 -40z m3732 -1291 c10 -16
1 -21 -48 -26 -44 -5 -65 6 -52 27 8 13 92 13 100 -1z m-4397 -127 c3 -10 -6
-12 -34 -10 -20 2 -39 9 -42 16 -3 10 6 12 34 10 20 -2 39 -9 42 -16z m13
-268 c16 -8 27 -19 24 -24 -7 -11 -169 -13 -227 -4 -28 5 -38 12 -38 25 0 15
10 19 53 22 77 6 155 -1 188 -19z m-371 -2197 c0 -7 -20 -44 -45 -81 -25 -38
-45 -70 -45 -71 0 -2 -17 -32 -38 -66 -47 -79 -91 -170 -162 -334 -15 -36 -58
-159 -74 -215 -9 -30 -22 -71 -28 -90 -6 -19 -15 -53 -19 -75 -4 -22 -15 -71
-23 -110 -54 -238 -85 -636 -69 -860 6 -77 9 -143 6 -148 -17 -29 -78 66 -108
168 -9 33 -23 78 -30 100 -33 100 -40 165 -40 345 0 181 7 246 41 365 55 190
77 260 85 270 5 5 9 17 9 27 0 9 12 43 26 75 14 32 32 74 41 93 8 19 22 49 31
65 9 17 19 37 23 45 69 137 196 306 322 432 77 77 97 90 97 65z m-546 -55 c3
-5 -2 -33 -10 -63 -19 -65 -28 -100 -49 -199 -53 -251 -54 -253 -98 -385 -37
-109 -99 -230 -118 -230 -17 0 -17 49 0 172 26 179 71 368 110 458 24 56 86
179 96 189 5 6 18 23 28 39 18 27 32 34 41 19z m654 -807 c7 -33 19 -134 27
-225 9 -91 22 -212 30 -270 9 -58 15 -123 15 -144 0 -47 24 -80 49 -67 15 9
43 57 69 121 11 26 27 161 38 315 8 121 44 235 79 249 13 5 14 -3 9 -52 -3
-31 -11 -75 -17 -97 -7 -26 -13 -333 -17 -855 -8 -891 -14 -1018 -66 -1355
-17 -109 -61 -311 -74 -335 -17 -34 -25 1 -22 95 2 55 7 134 12 175 6 41 14
140 20 220 5 80 14 188 20 240 23 231 1 825 -33 868 -14 18 -37 -4 -37 -37 0
-14 -4 -32 -9 -40 -16 -25 -36 2 -86 119 -41 95 -67 131 -82 116 -3 -3 3 -85
12 -183 9 -98 21 -223 25 -278 5 -55 13 -138 19 -185 16 -126 14 -432 -5 -563
-20 -142 -20 -145 -39 -126 -11 10 -18 57 -25 164 -6 82 -12 156 -15 165 -2 8
-9 78 -14 155 -14 192 -51 547 -70 665 -35 224 -38 586 -9 945 12 140 14 150
34 153 16 2 23 -5 32 -36 7 -22 12 -51 12 -65 0 -25 23 -57 41 -57 11 0 15 21
29 155 16 150 27 162 48 50z m1135 -52 c43 -74 60 -253 38 -411 -68 -489 -83
-1012 -41 -1377 11 -93 34 -222 49 -265 4 -14 14 -43 21 -65 16 -54 70 -165
79 -165 4 0 11 71 14 158 6 151 11 207 42 412 8 52 19 129 25 170 5 41 15 109
21 150 6 41 14 100 18 130 4 39 10 55 21 55 13 0 17 -43 26 -285 11 -283 20
-387 50 -570 30 -181 80 -395 118 -500 34 -94 125 -367 139 -420 31 -110 46
-166 62 -235 9 -38 20 -86 25 -105 63 -251 95 -538 71 -627 -11 -42 -36 -58
-46 -30 -3 6 -9 68 -14 137 -25 307 -56 471 -131 695 -16 49 -30 91 -30 92 0
2 -5 3 -11 3 -13 0 -9 -35 16 -140 46 -195 57 -294 58 -490 0 -198 -7 -249
-49 -385 -34 -107 -72 -185 -91 -185 -17 0 -14 40 12 180 19 102 35 270 35
355 -1 79 -23 290 -40 380 -23 120 -94 355 -125 415 -7 14 -27 56 -44 93 -39
85 -62 88 -74 12 -22 -142 -61 -296 -117 -465 -31 -93 -44 -128 -91 -235 -18
-42 -77 -163 -137 -278 -10 -20 -17 -26 -25 -18 -7 7 -6 41 6 113 32 204 55
450 66 700 4 92 9 170 13 173 14 14 38 -51 48 -132 14 -113 20 -135 34 -130
18 6 27 80 33 257 5 167 -2 256 -34 395 -16 71 -66 233 -82 270 -8 18 -36 95
-71 195 -15 44 -26 94 -50 240 -16 94 -19 167 -20 394 0 153 5 308 11 345 16
103 39 230 54 301 15 71 18 85 40 205 24 124 38 310 32 423 -4 90 -3 103 11
100 9 -2 24 -18 35 -35z m-568 -546 c31 -231 48 -1205 25 -1424 -7 -67 -7 -99
2 -118 20 -45 36 -33 97 75 47 83 74 116 89 106 23 -14 52 -276 52 -474 0
-134 -14 -326 -31 -437 -16 -102 -58 -312 -74 -370 -8 -27 -22 -77 -30 -110
-22 -78 -76 -250 -105 -330 -45 -122 -70 -175 -83 -175 -5 0 -7 18 -3 43 3 23
10 101 16 172 6 72 15 159 20 195 13 86 12 411 0 525 -6 50 -14 144 -20 209
-5 65 -13 123 -19 129 -6 6 -20 2 -41 -13 -17 -12 -34 -19 -37 -16 -9 9 17
917 28 1006 24 188 30 220 49 305 18 83 27 250 40 743 0 30 19 -1 25 -41z
m-939 -1364 c21 -135 18 -345 -5 -445 -31 -130 -75 -256 -136 -393 -12 -27
-25 -60 -29 -73 -4 -12 -12 -19 -18 -16 -10 7 -9 25 11 129 23 123 40 223 76
460 29 188 65 400 71 424 8 27 17 0 30 -86z m2231 -64 c10 -211 49 -361 171
-659 75 -183 114 -304 145 -450 26 -117 52 -256 61 -320 3 -19 12 -75 21 -125
25 -137 11 -229 -58 -364 -34 -68 -98 -141 -122 -141 -19 0 -19 10 2 111 23
106 25 509 5 634 -15 90 -39 205 -53 251 -5 16 -13 50 -18 75 -5 24 -21 89
-36 144 -15 55 -33 123 -40 150 -7 28 -21 77 -30 110 -17 60 -20 71 -50 195
-42 176 -53 330 -29 418 10 37 29 19 31 -29z"/>
<path d="M4074 9573 c-3 -16 -8 -34 -10 -42 -3 -8 -9 -44 -15 -80 -48 -311
-58 -417 -58 -619 l-1 -143 28 3 c26 3 27 1 30 -52 2 -30 8 -60 14 -67 13 -17
143 -17 257 -1 l83 11 34 53 c42 66 78 154 66 166 -4 4 -26 -7 -49 -27 -23
-19 -44 -35 -47 -35 -18 0 10 84 54 162 13 23 13 58 0 58 -6 0 -26 -23 -46
-50 -70 -98 -105 -91 -85 17 13 75 38 175 52 211 13 33 11 52 -5 52 -8 0 -43
-41 -78 -91 -89 -128 -93 -133 -106 -125 -7 4 -12 30 -12 58 l0 51 -34 -6
c-57 -9 -60 1 -52 191 4 92 9 197 11 235 4 69 0 97 -16 97 -5 0 -11 -12 -15
-27z"/>
<path d="M5206 9470 c-37 -22 -71 -40 -73 -40 -13 0 -211 -151 -238 -181 -62
-70 -95 -118 -95 -138 0 -21 1 -21 30 -6 45 23 52 11 30 -46 -36 -90 -24 -105
46 -53 45 33 66 34 74 4 3 -15 14 -26 27 -28 17 -2 33 16 83 98 50 81 60 104
49 111 -8 5 -17 9 -21 9 -15 0 -8 38 12 63 24 30 26 57 5 57 -30 0 -13 27 43
68 149 109 161 122 120 122 -13 0 -54 -18 -92 -40z"/>
<path d="M3625 9050 c-4 -6 -3 -50 0 -99 9 -112 -2 -124 -58 -58 -44 53 -73
63 -63 22 3 -14 9 -36 12 -50 5 -18 2 -27 -11 -31 -12 -5 -46 22 -129 105 -61
61 -115 111 -119 111 -19 0 0 -55 53 -155 33 -60 82 -155 110 -210 28 -55 63
-109 77 -119 33 -24 99 -25 134 -3 21 14 28 15 45 3 30 -21 69 -27 87 -13 20
15 47 121 47 183 -1 68 -34 255 -51 285 -14 24 -14 24 -17 -16 -6 -74 -33 -70
-72 11 -22 44 -33 53 -45 34z"/>
<path d="M2570 8470 c-102 -8 -217 -25 -265 -39 -125 -37 -159 -50 -227 -84
-140 -72 -206 -159 -252 -333 -22 -82 -22 -338 -1 -432 24 -103 67 -232 93
-282 14 -25 34 -62 45 -84 11 -21 45 -66 76 -99 258 -278 634 -324 1026 -124
381 194 651 549 696 912 15 128 24 168 43 197 52 79 251 92 320 19 34 -36 45
-69 56 -176 15 -143 45 -243 115 -385 78 -160 243 -343 426 -472 57 -41 221
-130 274 -149 142 -51 215 -64 360 -64 130 0 165 6 270 47 171 66 342 228 409
388 10 25 22 54 27 65 10 22 21 56 51 165 29 104 32 404 4 495 -46 154 -110
236 -245 313 -36 21 -150 63 -196 73 -259 57 -116 53 -1630 54 -759 1 -1423
-1 -1475 -5z m1934 -60 c6 0 -35 -22 -90 -50 -97 -48 -159 -99 -204 -169 l-16
-23 -38 26 c-57 38 -109 49 -211 43 -84 -5 -145 -23 -160 -48 -13 -20 -44 -7
-69 30 -38 54 -97 99 -194 147 -46 23 -79 43 -73 45 8 3 943 2 1055 -1z"/>
<path d="M3971 7608 c-5 -13 -10 -32 -12 -43 -5 -24 -39 -34 -39 -11 0 8 -5
18 -10 21 -15 9 -40 -14 -40 -36 0 -26 -18 -33 -47 -18 -25 13 -28 12 -72 -40
-25 -30 -122 -133 -216 -228 -94 -97 -177 -190 -187 -211 -31 -69 -16 -190 29
-244 16 -19 89 -48 178 -72 33 -9 85 -23 116 -31 76 -21 157 -72 194 -121 36
-50 67 -68 87 -51 8 7 31 33 52 59 53 67 135 112 246 133 19 4 49 10 65 15
177 50 169 45 196 108 25 57 25 153 2 195 -30 55 -84 118 -197 232 -108 108
-172 193 -185 244 -10 37 -38 39 -52 4 -10 -27 -11 -28 -25 -8 -8 11 -20 39
-26 63 -13 53 -44 74 -57 40z m-143 -596 c54 -39 40 -114 -28 -142 -28 -11
-35 -10 -91 24 -34 20 -97 49 -140 63 -59 20 -79 31 -79 44 0 33 30 40 170 37
123 -3 138 -5 168 -26z m523 9 c32 -26 16 -53 -37 -63 -76 -15 -119 -32 -159
-63 -59 -46 -62 -47 -92 -31 -64 33 -81 79 -47 130 26 40 45 45 185 45 111 1
130 -1 150 -18z"/>
<path d="M6286 7601 c-8 -13 7 -58 52 -151 37 -79 65 -139 122 -265 56 -124
84 -185 115 -250 35 -73 87 -187 124 -267 40 -88 54 -47 26 79 -8 37 -19 91
-25 118 -70 321 -116 445 -220 585 -28 38 -79 90 -112 115 -62 46 -73 51 -82
36z"/>
<path d="M5653 6764 c-3 -8 2 -23 11 -33 9 -10 16 -20 16 -24 0 -4 39 -71 88
-149 98 -161 127 -217 152 -300 22 -71 46 -70 70 5 15 48 31 55 69 28 16 -12
32 -21 35 -21 12 0 6 41 -10 73 -17 33 -93 148 -103 157 -4 3 -19 23 -36 45
-103 140 -273 268 -292 219z"/>
<path d="M5290 6677 c0 -7 14 -40 30 -72 37 -73 34 -90 -16 -80 -20 3 -45 12
-55 18 -29 18 -33 1 -7 -33 26 -36 214 -200 228 -200 5 0 14 9 20 20 17 32 43
23 80 -30 38 -53 63 -62 80 -29 11 19 13 20 30 4 10 -9 46 -72 79 -139 57
-117 84 -156 97 -143 16 16 -59 253 -118 377 -43 91 -121 201 -184 263 -51 50
-68 49 -61 -3 7 -55 -11 -53 -97 10 -68 49 -106 63 -106 37z"/>
<path d="M4883 6544 c-6 -16 29 -47 90 -81 57 -32 117 -82 117 -98 0 -21 -17
-27 -42 -14 -29 16 -68 25 -203 49 -128 23 -165 25 -165 8 0 -20 12 -32 55
-53 120 -59 201 -124 175 -140 -5 -3 -10 -20 -10 -36 0 -30 -1 -31 -40 -24
-23 4 -40 3 -40 -3 0 -5 37 -47 83 -93 109 -111 140 -173 141 -284 1 -78 0
-82 -42 -142 -64 -95 -63 -101 65 -373 33 -69 48 -89 64 -90 4 0 10 32 14 71
5 47 12 72 22 76 7 3 16 3 18 1 15 -15 181 -513 238 -713 30 -106 64 -240 82
-325 9 -41 20 -93 25 -115 5 -22 12 -62 15 -88 6 -44 26 -70 42 -54 10 11 6
370 -6 457 -6 47 -18 150 -26 230 -9 80 -20 177 -25 215 -5 39 -12 93 -15 120
-4 28 -10 66 -15 85 -43 171 -50 194 -88 295 -26 68 -164 398 -196 467 -45 98
-28 123 39 58 57 -55 65 -38 24 51 -43 93 -32 105 51 55 100 -59 113 -49 63
46 -31 60 -34 72 -24 94 15 33 8 45 -76 126 -109 106 -172 150 -283 197 -80
35 -120 42 -127 25z"/>
<path d="M5760 5831 c0 -30 117 -309 157 -373 13 -21 23 -40 23 -43 0 -30 205
-265 231 -265 24 0 -4 93 -66 225 -47 100 -148 251 -262 395 -68 86 -83 97
-83 61z"/>
<path d="M4072 5524 c-18 -12 -22 -25 -22 -68 0 -75 24 -135 70 -178 38 -35
40 -41 40 -94 0 -50 11 -141 26 -211 2 -13 8 -23 13 -23 15 0 21 49 30 233 9
165 11 181 32 203 12 13 29 24 36 24 22 0 27 28 9 55 -22 33 -58 50 -137 64
-80 14 -70 14 -97 -5z"/>
<path d="M4764 5443 c-14 -21 -19 -46 -19 -98 0 -67 3 -76 76 -220 125 -249
164 -315 185 -315 17 0 17 1 -1 75 -7 33 -10 64 -6 68 9 9 41 -1 41 -14 0 -5
9 -9 20 -9 22 0 25 11 11 38 -5 9 -13 28 -19 42 -66 155 -111 246 -128 261
-13 10 -16 9 -21 -9 -17 -68 -83 50 -83 149 0 51 -3 59 -19 59 -10 0 -27 -12
-37 -27z"/>
<path d="M4457 5373 c-42 -88 -57 -163 -57 -278 0 -129 14 -195 69 -320 l18
-39 17 26 c10 15 21 53 26 86 8 61 24 102 39 102 5 0 40 -39 79 -87 93 -116
159 -180 172 -167 7 7 -19 62 -81 170 -142 248 -180 327 -205 425 -31 127 -35
139 -43 139 -4 0 -20 -26 -34 -57z"/>
<path d="M5205 4678 c-2 -7 -6 -31 -7 -53 -3 -39 -3 -40 -40 -38 l-38 2 0 -44
c0 -42 4 -69 36 -225 36 -175 47 -192 78 -125 9 19 21 35 26 35 5 0 17 -16 26
-35 20 -42 31 -44 45 -7 8 20 7 48 -6 112 -21 100 -30 152 -45 239 -5 35 -16
82 -24 105 -14 41 -42 60 -51 34z"/>
<path d="M5251 3381 c-7 -4 -19 -43 -27 -87 -36 -200 -46 -253 -53 -307 -5
-37 -15 -65 -27 -78 l-20 -20 -52 103 c-28 57 -70 147 -93 201 -66 154 -93
168 -65 35 17 -81 36 -177 57 -288 6 -30 15 -75 21 -100 6 -25 14 -70 18 -100
4 -30 17 -116 29 -190 23 -147 28 -360 11 -451 -14 -74 -18 -328 -5 -331 5 -2
15 29 22 67 27 148 33 182 48 255 8 41 20 102 25 134 6 33 13 63 15 67 3 4 9
35 15 70 5 35 17 98 25 139 8 41 19 102 24 135 11 75 31 185 38 205 11 36 37
-48 42 -142 6 -93 18 -127 39 -114 23 14 72 230 72 314 0 71 -34 254 -63 344
-41 124 -65 158 -96 139z"/>
</g>
</svg>
