<?xml version="1.0" standalone="no"?>
<!DOCTYPE svg PUBLIC "-//W3C//DTD SVG 20010904//EN"
 "http://www.w3.org/TR/2001/REC-SVG-20010904/DTD/svg10.dtd">
<svg version="1.0" xmlns="http://www.w3.org/2000/svg"
 width="840.000000pt" height="671.000000pt" viewBox="0 0 840.000000 671.000000"
 preserveAspectRatio="xMidYMid meet">

<g transform="translate(0.000000,671.000000) scale(0.100000,-0.100000)"
fill="#000000" stroke="none">
<path d="M4105 6304 c-16 -2 -49 -7 -73 -10 l-43 -5 -88 -177 c-154 -307 -201
-469 -201 -686 0 -227 36 -331 232 -664 110 -187 162 -297 190 -399 19 -70 21
-109 24 -391 3 -313 3 -314 -20 -360 -13 -26 -36 -76 -50 -111 l-26 -64 40
-52 c72 -93 100 -194 77 -277 -6 -24 -13 -27 -54 -30 -59 -4 -72 -28 -15 -28
72 0 72 0 72 -115 0 -56 -3 -124 -7 -150 -6 -45 -9 -50 -65 -84 -34 -21 -57
-42 -56 -51 2 -8 29 -34 60 -57 84 -64 88 -111 19 -222 -45 -74 -46 -82 -5
-129 60 -70 69 -71 125 -16 28 28 49 57 49 70 0 11 -16 42 -35 67 -41 54 -55
87 -55 131 0 27 11 43 61 91 71 67 70 75 -6 116 -26 15 -51 33 -55 40 -3 8 -4
78 -2 157 l4 142 43 0 c89 0 104 27 18 32 l-58 3 -3 58 c-4 74 18 151 70 246
l40 73 -46 102 -45 101 -4 255 c-4 295 4 454 28 525 10 28 56 122 104 210 145
270 209 426 247 600 22 105 22 275 0 379 -51 234 -202 651 -242 666 -25 10
-207 20 -249 14z"/>
<path d="M3464 5924 c-114 -82 -217 -168 -317 -263 l-88 -85 -37 13 c-101 36
-203 126 -327 291 -47 61 -50 63 -56 40 -13 -47 -9 -221 7 -298 21 -103 62
-204 134 -337 l60 -110 -20 -51 c-73 -179 -66 -369 16 -455 23 -25 27 -37 27
-86 0 -32 -10 -95 -22 -140 -11 -45 -21 -86 -21 -91 0 -5 36 -13 79 -16 77 -7
238 -37 273 -51 13 -5 22 1 35 25 93 169 155 216 238 178 18 -8 25 -19 26 -42
4 -73 -5 -129 -38 -261 -34 -138 -44 -232 -29 -290 6 -26 24 -39 138 -99 134
-72 268 -159 268 -176 0 -5 -21 -50 -46 -101 l-47 -91 -45 6 c-84 11 -145 49
-260 159 -165 159 -249 206 -459 251 -96 21 -93 22 -82 -16 20 -70 6 -153 -28
-164 -146 -50 -236 -140 -258 -257 -4 -20 -11 -37 -15 -37 -13 0 -51 100 -65
173 -8 40 -21 178 -29 307 -17 253 -32 336 -73 411 -26 48 -59 86 -68 78 -2
-3 6 -74 17 -159 16 -112 22 -207 22 -345 l1 -190 -48 -148 c-64 -199 -77
-258 -77 -353 0 -159 58 -368 186 -669 93 -219 183 -395 358 -695 383 -658
490 -825 667 -1045 84 -103 239 -269 239 -255 0 3 -7 37 -15 75 -27 127 -14
260 34 340 l21 36 -46 47 c-140 140 -205 340 -160 495 9 32 22 57 30 57 7 0
60 -7 119 -15 278 -39 713 -39 996 1 58 7 112 14 122 14 25 0 39 -56 39 -158
0 -133 -45 -241 -159 -385 l-57 -72 27 -43 c50 -79 57 -210 18 -345 -6 -22 -9
-41 -6 -43 4 -5 105 106 218 241 359 427 738 1082 1084 1870 105 240 151 429
142 580 -6 91 -14 123 -82 340 -53 168 -57 305 -21 597 14 114 26 213 26 220
0 16 -58 -40 -75 -72 -46 -88 -61 -193 -75 -495 -10 -236 -23 -304 -66 -362
-14 -18 -29 -33 -33 -33 -5 0 -11 27 -13 60 -5 75 -24 102 -109 156 -35 23
-84 55 -109 70 -58 38 -78 85 -63 155 12 59 13 59 -107 25 -186 -51 -290 -111
-450 -260 -118 -110 -160 -135 -234 -143 l-52 -5 -48 96 c-27 52 -46 102 -43
109 3 8 36 31 74 52 37 20 130 74 205 118 l137 82 1 62 c0 39 -13 112 -36 200
-41 160 -51 250 -35 311 13 47 17 48 88 27 60 -18 94 -52 149 -150 31 -57 40
-66 58 -60 11 3 82 19 156 35 169 35 194 45 185 68 -4 9 -13 70 -22 134 l-15
117 25 33 c47 62 61 122 61 258 0 102 -4 136 -22 185 l-21 60 49 75 c66 100
126 232 151 327 22 89 34 266 22 332 l-8 45 -75 -94 c-127 -162 -209 -230
-319 -266 l-53 -17 -96 95 c-54 52 -126 120 -162 149 -85 71 -238 174 -246
166 -9 -8 23 -101 61 -177 89 -178 108 -297 86 -526 -20 -207 16 -312 146
-419 59 -49 86 -64 224 -129 70 -33 86 -63 89 -166 5 -141 3 -156 -25 -168
-26 -12 -175 -52 -193 -52 -6 0 -34 42 -63 93 -28 50 -69 116 -91 145 -47 63
-57 64 -219 23 -167 -43 -165 -41 -179 -102 -17 -68 -8 -149 30 -279 18 -61
33 -141 37 -191 l6 -86 -51 -39 c-27 -22 -83 -63 -123 -92 -75 -54 -139 -126
-139 -154 0 -9 31 -53 69 -98 87 -103 115 -158 109 -220 -7 -72 -34 -117 -82
-138 -47 -21 -62 -36 -71 -73 -6 -24 -4 -26 57 -37 104 -19 183 -65 273 -158
l80 -82 45 18 c93 39 132 18 215 -115 55 -88 70 -102 123 -110 41 -6 55 -15
105 -67 56 -60 57 -63 57 -118 0 -115 -44 -189 -158 -263 -130 -85 -126 -84
-159 -56 -16 13 -69 46 -119 72 -106 56 -124 72 -203 176 -63 83 -107 125
-142 136 -32 11 -81 -3 -114 -30 l-30 -26 65 6 c47 5 70 3 81 -7 9 -7 45 -55
79 -106 43 -64 94 -121 159 -180 52 -48 135 -125 184 -172 l88 -85 37 44 c46
56 263 251 278 251 21 0 73 -68 79 -103 17 -87 -58 -214 -264 -446 -65 -74
-171 -161 -196 -161 -7 0 -17 24 -24 57 -16 83 -46 136 -120 216 -90 98 -128
147 -149 196 l-19 40 -70 -87 c-112 -138 -218 -233 -309 -278 -72 -36 -84 -39
-164 -39 -78 0 -92 3 -165 38 -136 65 -250 165 -340 297 l-48 69 -34 -57 c-19
-31 -66 -91 -104 -134 -95 -105 -135 -168 -160 -249 -24 -79 -17 -79 -118 5
-127 105 -259 274 -338 429 l-44 88 21 34 c22 36 75 85 91 85 6 0 76 -65 157
-145 l146 -145 43 49 c23 27 96 89 160 139 163 124 204 170 227 254 11 41 27
75 43 90 22 20 33 23 101 21 l76 -3 -22 23 c-19 18 -34 22 -87 22 -81 0 -107
-18 -156 -109 -50 -93 -85 -125 -206 -191 -57 -32 -117 -68 -133 -81 -15 -13
-31 -24 -34 -24 -4 0 -43 23 -86 51 -140 90 -200 179 -200 299 0 42 5 51 63
112 52 56 69 68 104 74 68 10 99 36 138 115 61 119 108 143 195 99 22 -11 46
-20 54 -20 8 0 39 33 69 73 72 97 105 123 174 137 140 28 184 61 143 105 -11
12 -36 31 -55 41 -36 19 -57 56 -80 143 -16 62 -16 63 81 173 29 34 65 83 79
110 l27 49 -27 36 c-15 19 -55 52 -89 73 -167 104 -174 110 -197 156 -29 61
-22 123 32 279 36 104 42 132 42 209 1 81 -1 90 -22 107 -31 25 -157 64 -260
79 -100 15 -82 30 -198 -156 -89 -144 -68 -135 -219 -89 l-81 25 -7 67 c-6 72
5 177 23 211 5 10 74 52 152 93 161 83 217 131 257 217 l27 57 0 265 c0 296
-4 276 81 465 52 118 79 205 64 205 -4 0 -43 -25 -86 -56z m-977 -2551 c28
-142 121 -254 303 -367 52 -32 125 -81 162 -109 61 -46 68 -54 74 -95 10 -70
-17 -141 -81 -210 l-53 -58 10 -51 c8 -40 7 -62 -6 -104 -19 -69 -73 -151 -95
-147 -31 6 -123 145 -206 313 -136 276 -189 452 -189 640 -1 131 26 258 52
253 11 -2 20 -23 29 -65z m3443 20 c18 -76 24 -285 10 -371 -15 -97 -51 -210
-102 -326 -53 -121 -248 -466 -264 -466 -19 0 -72 57 -95 103 -22 42 -30 122
-17 167 6 21 -1 36 -38 80 -55 67 -85 128 -91 184 -9 79 42 138 180 207 218
110 327 232 359 403 10 50 17 66 29 66 12 0 21 -14 29 -47z m-2565 -67 c78
-23 185 -79 220 -116 34 -36 27 -48 -52 -85 -125 -59 -325 -70 -448 -24 -62
23 -145 93 -145 122 0 24 49 76 94 99 74 38 207 40 331 4z m1937 8 c25 -8 63
-30 84 -48 31 -27 36 -36 30 -59 -11 -44 -61 -92 -128 -123 -59 -27 -71 -29
-188 -29 -92 1 -141 5 -185 19 -68 21 -150 60 -161 78 -19 30 153 133 272 162
81 20 219 20 276 0z"/>
<path d="M2123 5692 c-4 -20 -7 -73 -7 -117 1 -141 49 -257 146 -352 48 -47
142 -113 159 -113 12 0 138 151 164 195 46 80 47 78 -59 128 -124 59 -233 134
-323 224 l-72 73 -8 -38z"/>
<path d="M6219 5704 c-7 -14 -50 -60 -94 -103 -82 -76 -208 -152 -300 -181
-55 -17 -57 -21 -40 -70 16 -45 60 -106 138 -194 l44 -49 54 29 c167 90 277
299 250 475 -10 63 -26 119 -34 119 -2 0 -10 -12 -18 -26z"/>
<path d="M2785 4098 c10 -34 33 -66 58 -82 22 -15 196 -60 203 -53 2 2 -9 22
-25 44 -53 74 -124 113 -203 113 -36 0 -39 -2 -33 -22z"/>
<path d="M5450 4099 c-25 -11 -58 -32 -73 -47 -28 -26 -62 -80 -55 -87 2 -2
24 2 48 10 25 8 71 21 104 30 66 18 106 52 106 90 0 23 -4 25 -42 25 -24 0
-63 -10 -88 -21z"/>
<path d="M4562 2293 c-10 -16 -29 -55 -42 -88 -33 -83 -56 -114 -104 -135 -22
-10 -63 -41 -91 -70 -52 -54 -126 -110 -144 -110 -20 0 -282 221 -305 258 -13
20 -29 53 -35 74 -7 20 -24 48 -39 63 l-27 27 -27 -31 c-15 -16 -32 -47 -37
-68 -14 -50 -13 -139 2 -182 11 -31 19 -37 92 -61 147 -49 211 -97 237 -174
18 -55 64 -81 145 -81 73 0 108 21 136 81 38 80 100 126 237 174 36 13 70 27
77 32 23 18 36 118 25 182 -11 57 -52 136 -71 136 -6 0 -18 -12 -29 -27z"/>
<path d="M3674 1415 c-3 -19 -3 -52 1 -72 8 -44 44 -133 54 -133 4 0 13 21 20
48 6 26 25 76 41 112 l29 65 -42 7 c-87 14 -95 11 -103 -27z"/>
<path d="M4563 1443 c-10 -3 -10 -10 1 -31 8 -15 28 -65 46 -110 18 -46 36
-80 40 -75 4 4 17 34 29 66 23 64 27 127 9 145 -12 12 -100 15 -125 5z"/>
<path d="M4024 1373 c4 -38 18 -131 31 -208 13 -77 27 -168 30 -202 7 -60 6
-63 -17 -72 -75 -28 -198 -253 -223 -407 -5 -32 -2 -45 11 -58 15 -16 18 -16
35 0 10 9 25 48 34 86 21 93 47 141 109 203 101 101 183 107 269 19 53 -53
123 -187 136 -258 5 -26 15 -55 24 -63 13 -13 17 -11 36 13 27 34 26 56 -5
129 -14 33 -30 77 -35 98 -16 66 -49 119 -119 192 l-67 70 8 78 c5 43 20 153
34 243 14 91 25 174 25 184 0 19 -8 20 -161 20 l-162 0 7 -67z"/>
</g>
</svg>
