<?xml version="1.0" standalone="no"?>
<!DOCTYPE svg PUBLIC "-//W3C//DTD SVG 20010904//EN"
 "http://www.w3.org/TR/2001/REC-SVG-20010904/DTD/svg10.dtd">
<svg version="1.0" xmlns="http://www.w3.org/2000/svg"
 width="990.000000pt" height="785.000000pt" viewBox="0 0 990.000000 785.000000"
 preserveAspectRatio="xMidYMid meet">

<g transform="translate(0.000000,785.000000) scale(0.100000,-0.100000)"
fill="#000000" stroke="none">
<path d="M2974 7540 c-36 -14 -264 -231 -374 -355 -58 -66 -128 -144 -156
-176 -62 -68 -185 -223 -273 -344 -64 -88 -181 -292 -181 -316 0 -7 -6 -20
-14 -28 -23 -25 -91 -205 -131 -341 -20 -69 -41 -138 -46 -155 -11 -28 -49
-179 -69 -270 -12 -57 -30 -382 -30 -550 0 -162 16 -391 32 -450 6 -22 21 -89
34 -150 27 -130 92 -354 130 -445 14 -36 36 -92 49 -125 42 -107 70 -170 81
-180 13 -11 63 -123 113 -252 25 -63 30 -91 25 -118 -10 -58 -53 -66 -104 -20
-14 12 -30 24 -36 26 -21 7 -187 221 -239 308 -5 9 -18 30 -29 46 -32 47 -226
437 -226 453 0 8 -9 31 -19 51 -30 55 -80 248 -98 374 -21 149 -25 954 -5
1091 14 94 7 125 -20 83 -9 -12 -23 -44 -32 -70 -9 -26 -22 -58 -30 -70 -8
-12 -20 -42 -26 -67 -6 -25 -17 -54 -24 -65 -44 -70 -124 -405 -147 -618 -7
-62 -9 -269 -6 -565 l4 -467 41 -195 c23 -107 55 -233 73 -280 17 -47 39 -109
50 -139 10 -30 30 -77 43 -105 13 -28 37 -80 54 -116 40 -88 145 -277 177
-320 35 -47 92 -136 117 -185 11 -22 33 -58 49 -80 28 -40 50 -108 42 -132 -6
-17 -38 -16 -71 1 -41 21 -206 195 -230 241 -11 22 -29 49 -41 59 -12 11 -21
25 -21 31 0 7 -7 18 -16 26 -22 18 -81 108 -99 151 -8 20 -19 39 -25 43 -5 3
-21 29 -35 58 -50 98 -105 150 -105 98 0 -49 111 -336 141 -364 10 -10 19 -25
19 -33 0 -21 127 -274 150 -299 11 -11 26 -36 34 -56 39 -93 249 -381 425
-581 676 -771 1535 -1229 2576 -1373 152 -21 632 -31 813 -16 299 24 653 98
962 201 588 196 1080 497 1529 935 90 88 206 210 259 270 126 146 304 385 343
460 17 33 46 85 64 115 50 82 108 188 137 250 93 196 120 257 148 335 17 49
35 95 41 101 13 16 8 66 -8 71 -15 5 -69 -69 -133 -183 -27 -51 -66 -114 -85
-140 -57 -79 -82 -116 -113 -169 -16 -27 -72 -91 -125 -142 -118 -114 -167
-132 -167 -61 0 30 49 129 94 193 12 17 27 44 35 60 14 34 53 95 89 139 13 17
44 71 69 120 24 50 51 98 59 107 8 8 14 21 14 28 0 11 25 64 76 161 47 89 132
364 165 530 42 218 49 317 49 722 0 423 -6 504 -61 771 -16 81 -43 185 -58
230 -16 45 -36 105 -45 132 -33 97 -107 247 -125 253 -11 4 -12 -4 -7 -34 4
-22 9 -221 12 -444 7 -491 -4 -713 -41 -850 -38 -143 -93 -297 -128 -367 -18
-34 -60 -117 -94 -185 -33 -68 -76 -146 -95 -174 -70 -108 -91 -139 -98 -144
-4 -3 -14 -18 -23 -35 -23 -46 -142 -181 -184 -210 -64 -43 -103 -27 -103 43
0 39 59 199 104 283 82 152 199 446 241 604 13 50 31 115 39 145 26 97 56 256
66 342 22 191 8 836 -20 888 -5 9 -14 48 -20 86 -6 38 -19 101 -30 139 -11 39
-26 95 -34 125 -34 131 -153 434 -197 500 -5 8 -19 35 -31 60 -26 55 -103 171
-162 244 -24 29 -55 71 -69 92 -14 22 -81 103 -150 182 -70 78 -134 156 -144
172 -9 17 -21 30 -25 30 -4 0 -51 46 -105 101 -128 133 -256 245 -289 253 -41
11 -52 -9 -22 -37 14 -14 34 -39 43 -58 10 -19 51 -83 91 -142 41 -60 74 -113
74 -119 0 -6 8 -20 17 -30 17 -19 60 -124 113 -275 38 -111 90 -367 90 -449 0
-155 -93 -601 -149 -717 -12 -24 -21 -50 -21 -58 0 -8 -8 -28 -19 -45 -10 -17
-22 -41 -26 -55 -22 -76 -180 -383 -220 -429 -12 -14 -37 -52 -55 -85 -18 -33
-64 -107 -103 -164 -38 -57 -80 -128 -94 -157 -13 -28 -30 -57 -38 -64 -25
-21 -37 -111 -24 -186 6 -38 18 -80 25 -94 14 -25 35 -82 83 -220 14 -41 29
-80 33 -86 14 -21 69 -178 99 -279 41 -141 79 -315 91 -415 13 -113 5 -756
-10 -792 -6 -15 -18 -69 -27 -120 -31 -177 -124 -451 -191 -559 -13 -20 -36
-65 -52 -100 -16 -35 -64 -110 -108 -167 -43 -57 -96 -127 -116 -155 -20 -29
-130 -145 -245 -258 -241 -238 -328 -301 -588 -429 -210 -103 -283 -130 -365
-137 -60 -5 -69 -3 -78 13 -5 11 -12 102 -16 204 -3 102 -11 311 -17 465 -12
302 -9 326 35 346 20 9 33 8 69 -10 56 -27 221 -164 266 -220 19 -25 37 -39
42 -34 9 9 -5 72 -18 82 -9 7 -96 170 -145 271 -19 40 -31 82 -32 109 -1 40 3
47 33 68 48 33 77 39 360 78 237 34 331 55 331 76 0 17 -47 39 -124 59 -42 11
-80 21 -84 24 -4 2 -55 10 -112 16 -185 20 -385 66 -415 96 -33 34 -7 175 50
269 35 58 100 194 115 240 7 22 21 50 30 62 20 26 46 111 36 120 -10 11 -61
-43 -196 -208 -121 -147 -180 -209 -200 -209 -41 0 -55 260 -90 1635 -11 435
-24 896 -30 1025 -5 129 -14 429 -20 665 -17 698 -34 969 -61 1000 -5 5 -9
-83 -9 -200 0 -116 -5 -277 -10 -360 -5 -82 -16 -427 -25 -765 -35 -1440 -76
-2613 -101 -2897 -3 -40 -12 -77 -19 -83 -24 -20 -90 46 -283 282 -129 158
-132 161 -132 115 0 -36 62 -211 85 -237 7 -8 16 -26 20 -40 4 -14 20 -52 36
-86 15 -33 46 -113 68 -178 46 -132 45 -146 -16 -171 -50 -21 -129 -38 -343
-74 -235 -40 -314 -60 -318 -84 -6 -28 16 -45 66 -53 26 -3 52 -10 57 -15 6
-4 62 -13 125 -19 156 -15 367 -47 390 -60 36 -19 50 -41 50 -81 0 -35 -8 -62
-54 -186 -7 -18 -22 -43 -34 -56 -12 -13 -22 -28 -22 -34 0 -6 -11 -24 -24
-40 -24 -29 -70 -142 -62 -151 7 -6 34 16 153 122 106 95 185 149 210 144 10
-2 26 -19 35 -38 16 -30 18 -67 18 -276 0 -268 -15 -568 -33 -659 l-12 -60
-40 1 c-64 1 -259 70 -385 136 -174 91 -323 193 -450 311 -132 121 -335 340
-411 442 -29 39 -64 84 -80 100 -32 35 -99 155 -99 177 0 9 -7 21 -15 28 -24
20 -84 137 -120 235 -33 90 -45 135 -107 380 l-33 130 0 430 0 430 27 95 c89
317 109 383 138 460 159 422 164 436 164 515 1 65 -3 77 -51 173 -29 56 -92
162 -140 236 -48 73 -96 147 -105 162 -27 45 -40 66 -69 109 -14 22 -30 51
-34 65 -4 14 -11 30 -16 35 -18 24 -108 216 -143 305 -20 52 -41 103 -47 113
-6 11 -19 49 -29 85 -10 37 -28 99 -39 137 -76 254 -79 642 -7 865 38 116 67
194 76 205 5 6 18 36 30 68 25 66 111 215 180 312 94 132 102 163 34 135z"/>
</g>
</svg>
