<?xml version="1.0" standalone="no"?>
<!DOCTYPE svg PUBLIC "-//W3C//DTD SVG 20010904//EN"
 "http://www.w3.org/TR/2001/REC-SVG-20010904/DTD/svg10.dtd">
<svg version="1.0" xmlns="http://www.w3.org/2000/svg"
 width="1600.000000pt" height="1847.000000pt" viewBox="0 0 1600.000000 1847.000000"
 preserveAspectRatio="xMidYMid meet">

<g transform="translate(0.000000,1847.000000) scale(0.100000,-0.100000)"
fill="#000000" stroke="none">
<path d="M6160 17415 c-1009 -580 -1845 -1059 -1857 -1067 -21 -13 -18 -19
178 -352 109 -187 203 -344 207 -348 5 -5 747 416 1662 942 1392 801 1657 950
1674 942 12 -5 753 -431 1649 -946 895 -515 1633 -939 1640 -941 7 -3 89 123
216 335 112 187 202 342 200 344 -17 14 -3719 2146 -3725 2145 -5 -1 -835
-475 -1844 -1054z"/>
<path d="M6850 15809 c-717 -447 -1135 -713 -1134 -723 1 -13 212 -356 219
-356 1 0 263 149 580 330 318 182 579 329 581 328 4 -5 374 -3404 374 -3435
-1 -27 -38 -49 -776 -471 l-775 -443 -382 281 c-1779 1307 -2401 1766 -2401
1774 -1 5 251 154 559 333 308 178 563 327 567 331 6 6 -180 351 -201 375 -7
7 -2333 -1252 -2357 -1277 -9 -8 -2 -348 27 -1341 21 -731 38 -1333 39 -1337
0 -8 322 -1 397 8 l43 5 2 663 3 663 1590 -701 1590 -701 2 -895 2 -895 -1592
-701 -1592 -701 -3 663 -2 663 -53 5 c-92 9 -387 16 -387 8 -9 -142 -76 -2689
-71 -2693 22 -22 2355 -1269 2361 -1262 5 4 54 89 109 188 91 162 99 181 84
192 -9 7 -266 160 -570 340 -304 180 -552 331 -551 335 3 6 502 374 2395 1760
l422 309 761 -437 c707 -406 760 -439 760 -463 0 -26 -367 -3435 -372 -3457
-2 -6 -262 136 -578 317 -316 181 -579 328 -585 326 -11 -4 -224 -337 -224
-352 -1 -13 2277 -1420 2298 -1419 15 0 2231 1382 2258 1408 16 15 -200 361
-225 360 -9 -1 -269 -147 -577 -326 -308 -179 -561 -323 -562 -319 -10 25
-391 3467 -386 3472 5 4 351 206 771 449 l763 441 577 -423 c1901 -1392 2237
-1640 2240 -1646 1 -4 -249 -152 -555 -330 -307 -177 -564 -326 -571 -331 -20
-12 175 -384 198 -378 23 6 2343 1247 2356 1261 9 8 0 338 -32 1271 -24 693
-43 1297 -44 1343 l0 82 -78 0 c-44 0 -140 -3 -215 -7 l-137 -6 0 -664 c0
-364 -2 -663 -5 -663 -2 0 -674 295 -1492 656 -818 361 -1534 676 -1591 701
l-102 45 2 887 3 886 1580 697 c869 383 1586 697 1593 697 9 1 12 -137 12
-658 l0 -659 38 -6 c20 -3 116 -6 212 -8 l175 -3 3 70 c20 489 88 2622 83
2626 -12 12 -2372 1271 -2375 1268 -2 -2 -47 -88 -100 -191 l-97 -187 82 -48
c46 -26 301 -174 567 -328 266 -155 485 -285 486 -290 0 -5 -629 -469 -1398
-1032 l-1399 -1023 -58 32 c-31 18 -377 218 -768 443 -671 387 -710 412 -711
438 0 31 370 3430 374 3435 2 1 261 -147 575 -329 315 -182 574 -330 575 -328
13 15 226 362 224 365 -8 7 -2274 1417 -2283 1419 -5 2 -521 -316 -1145 -706z"/>
<path d="M1858 14927 l-1858 -1072 0 -2142 0 -2143 400 0 400 0 0 1913 0 1912
1665 960 c915 528 1664 963 1665 967 0 10 -399 673 -407 675 -5 2 -844 -480
-1865 -1070z"/>
<path d="M12115 15708 c-93 -160 -184 -316 -202 -347 l-32 -56 1659 -955 1660
-955 0 -1912 0 -1913 400 0 400 0 0 2143 0 2142 -1846 1070 c-1015 589 -1850
1071 -1857 1072 -7 2 -88 -128 -182 -289z"/>
<path d="M0 6767 l0 -2152 1849 -1067 c1016 -587 1855 -1070 1863 -1073 12 -5
66 80 218 340 111 190 199 349 196 353 -4 3 -753 437 -1664 963 l-1657 957 -3
1916 -2 1916 -400 0 -400 0 0 -2153z"/>
<path d="M15198 7004 l-3 -1916 -1645 -955 c-905 -525 -1651 -957 -1657 -961
-16 -9 386 -703 404 -699 7 1 842 484 1857 1072 l1846 1070 0 2153 0 2152
-400 0 -400 0 -2 -1916z"/>
<path d="M4488 2503 c-113 -192 -202 -351 -199 -355 4 -4 841 -489 1861 -1078
1375 -794 1859 -1069 1872 -1063 43 20 3708 2139 3708 2144 0 3 -90 158 -199
345 -149 253 -204 339 -218 338 -10 0 -749 -425 -1643 -944 -894 -518 -1634
-947 -1646 -952 -17 -8 -275 138 -1645 932 -893 518 -1638 951 -1655 961 l-32
19 -204 -347z"/>
</g>
</svg>
